<svg xmlns="http://www.w3.org/2000/svg" xmlnsXlink="http://www.w3.org/1999/xlink" width="19" height="14" version="1.1" viewBox="0 0 19.67 14.71">
  <path d="m8.9593 14.7c-0.13457-0.009567-0.20181-0.024809-0.30599-0.069374-0.47722-0.20415-0.7583-0.48042-0.8292-0.81502-0.0521-0.24587-0.025422-0.77159 0.064298-1.2668 0.056607-0.31248 0.14712-0.63183 0.32674-1.1528 0.49573-1.4379 0.55057-1.6698 0.50943-2.1541-0.047897-0.56383-0.13112-1.0263-0.19829-1.102-0.071856-0.080951-0.21994-0.10622-0.39303-0.067061-0.20647 0.046715-0.63793 0.095653-0.94606 0.10731-0.27186 0.010284-0.35661 0.019453-0.39155 0.042348-0.028826 0.018884-0.069333 0.08922-0.11455 0.1989-0.13296 0.3225-0.50357 1.1335-0.72612 1.589-0.63891 1.3077-1.272 2.2692-2.0018 3.0405-0.10585 0.11186-0.16793 0.19205-0.16793 0.21692 0 0.05384 0.32417 0.38196 0.45753 0.46312 0.23171 0.14101 0.52385 0.19549 0.90182 0.16818 0.25536-0.01846 0.33458-0.03292 0.72844-0.13295l0.31771-0.0807-0.072619 0.06236c-0.23695 0.20348-0.60223 0.42365-0.85405 0.51477-0.080749 0.02922-0.23093 0.07113-0.33374 0.09314-0.16139 0.03455-0.22447 0.03877-0.46176 0.03098-0.38266-0.01259-0.56481-0.06576-1.135-0.33129-0.12361-0.05756-0.25841-0.10821-0.29955-0.11253-0.069581-0.0073-0.085176 4.11e-4 -0.22319 0.11036-0.33732 0.26878-0.69603 0.48514-0.92275 0.55655-0.1706 0.05374-0.5432 0.06928-0.72649 0.03032-0.30572-0.06501-0.60106-0.22301-0.81304-0.43499-0.19764-0.19764-0.28156-0.34395-0.33037-0.57598-0.02681-0.12745-0.025804-0.14706 0.028729-0.56084 0.031083-0.23583 0.058525-0.43092 0.060989-0.43354 0.00245-0.0026 0.009995 0.10767 0.016744 0.24509 0.023762 0.48425 0.078861 0.77774 0.18622 0.9919 0.082315 0.16421 0.1702 0.26887 0.3088 0.36778 0.36472 0.26026 0.88786 0.29135 1.3058 0.0776 0.22569-0.11542 0.57416-0.40965 0.63366-0.53502 0.039536-0.08332 0.031348-0.1123-0.081702-0.28932-0.17246-0.27004-0.36745-0.69128-0.48322-1.0439-0.4023-1.2254-0.36006-2.519 0.1311-4.0147 0.49008-1.4924 1.2091-2.7241 2.1592-3.6986 0.65063-0.66734 1.2931-1.1415 2.1059-1.5542 0.68284-0.3467 0.85279-0.40182 1.7701-0.57403 0.79046-0.1484 0.87176-0.17225 1.0894-0.31957 0.15955-0.10798 0.29032-0.17673 0.29032-0.15263 0 0.00938-0.028591 0.076709-0.063545 0.14963-0.034945 0.072924-0.063545 0.14158-0.063545 0.15256 0 0.010985 0.13684 0.079501 0.30409 0.15226 0.54492 0.23705 0.80911 0.39392 1.0303 0.61175 0.5598 0.55136 0.74429 1.3177 0.50048 2.0788-0.06362 0.1986-0.26923 0.61346-0.4596 0.92735-0.48478 0.7993-1.1541 1.4399-1.8836 1.8027-0.054916 0.027313-0.10167 0.051177-0.1039 0.053031-0.018367 0.015323 0.051495 0.16607 0.13354 0.28815 0.20035 0.29812 0.36217 0.69026 0.43633 1.0573 0.045459 0.22502 0.046227 0.94755 0.00133 1.2205-0.078538 0.47709-0.18634 0.87988-0.52346 1.956l-0.22182 0.70803-0.00791 0.25417c-0.017081 0.54844 0.094499 0.71656 0.48562 0.73172 0.30863 0.01196 0.54148-0.0617 0.76439-0.24181 0.38281-0.30929 0.71228-0.84192 1.0413-1.6834 0.20506-0.52443 0.25036-0.95606 0.14342-1.3664-0.04293-0.16469-0.027-0.39023 0.03624-0.51349 0.09246-0.1802 0.23161-0.28593 0.4499-0.34185 0.19582-0.05017 0.35217-0.0023 0.48484 0.14842 0.09801 0.11135 0.1457 0.24548 0.16673 0.46894 0.0095 0.10094 0.02528 0.70638 0.03505 1.3454 0.0153 0.99924 0.04257 1.7801 0.06478 1.8548 0.0071 0.02402 0.60769-0.21423 0.77108-0.3059 0.33962-0.19053 0.73241-0.63777 0.92361-1.0516 0.16862-0.36498 0.27784-0.81505 0.28148-1.16l0.0022-0.20878-0.12708-0.06655c-0.16752-0.08773-0.24313-0.16535-0.32786-0.33656-0.05833-0.11788-0.07121-0.16444-0.07709-0.27861-0.0049-0.09627 0.0013-0.15707 0.02101-0.20424 0.02587-0.0619 0.03387-0.06717 0.10219-0.06717 0.10298 0 0.17972 0.03645 0.25696 0.12204 0.09384 0.10399 0.15109 0.20986 0.20611 0.3811 0.05231 0.16283 0.10155 0.22089 0.22065 0.2602 0.06487 0.02141 0.2685 0.01463 0.36582-0.01217l0.04161-0.01145-0.04017 0.06808c-0.04948 0.08387-0.11716 0.11374-0.31571 0.13937-0.11039 0.01425-0.15504 0.02764-0.16361 0.04908-0.0064 0.01622-0.01833 0.19697-0.02635 0.40166-0.01336 0.34142-0.01985 0.39242-0.07855 0.61726-0.15742 0.60298-0.36992 1.0287-0.71591 1.4342-0.28248 0.33109-0.62677 0.57956-0.99228 0.71612-0.13168 0.0492-0.44334 0.11901-0.53116 0.11898l-0.05161-1.6e-5 -0.35188-1.1937c-0.19354-0.65651-0.35771-1.2047-0.36484-1.2182-0.016-0.03028-0.01194-0.03716-0.45398 0.76886-0.60249 1.0985-0.67417 1.2216-0.77851 1.3369-0.1691 0.18686-0.35401 0.30363-0.65866 0.41596-0.15072 0.05557-0.16653 0.05676-0.46935 0.03523zm-5.4806-2.1921c0.25107-0.32301 0.44437-0.60492 0.68153-0.99397 0.46073-0.7558 0.94344-1.8796 1.3757-3.2028l0.12109-0.37068-0.098447-0.10134c-0.41315-0.42529-0.53651-0.72198-0.43046-1.0353 0.078215-0.2311 0.209-0.37378 0.39361-0.42938 0.12213-0.036784 0.44362-0.033395 0.68358 0.00719 0.1079 0.018255 0.19885 0.028581 0.20211 0.022956 0.00327-0.00563 0.061152-0.15729 0.12865-0.33702 0.53544-1.4257 1.0298-2.2658 1.8373-3.1221 0.15213-0.16131 0.15312-0.16296 0.10495-0.17585-0.069425-0.018567-0.51837 0.013044-0.68953 0.048552-0.2373 0.049228-0.40296 0.10934-0.69197 0.25111-0.98337 0.48235-1.6802 1.0777-2.49 2.1273-1.2685 1.6442-1.8445 3.3264-1.7966 5.2463 0.015068 0.60323 0.081595 1.0599 0.22173 1.5221 0.086397 0.28496 0.2641 0.71998 0.2941 0.71998 0.00823 0 0.076895-0.07965 0.15257-0.17701zm4.0608-4.7798c0.30658-0.030276 0.56556-0.057501 0.57552-0.060493 0.00996-0.00303-0.00229-0.016024-0.027232-0.028954-0.024942-0.012929-0.14986-0.096734-0.2776-0.18623-0.28093-0.19682-0.46258-0.30482-0.51179-0.30429-0.08058 8.678e-4 -0.18822 0.068389-0.22548 0.14142-0.039694 0.077806-0.18329 0.45222-0.18329 0.47791 0 0.023235 0.041619 0.020716 0.64987-0.039364zm-1.452-0.67478c0.081706-0.15677 0.14856-0.2968 0.14856-0.31118 0-0.03997-0.25727-0.10273-0.42112-0.10273-0.080839 0-0.16399 0.011174-0.20233 0.027193-0.16953 0.070834-0.27201 0.23882-0.27303 0.44755-4.804e-4 0.10287 0.00735 0.13341 0.053078 0.20649 0.06327 0.10112 0.15955 0.17456 0.30786 0.23484l0.10755 0.043708 0.065433-0.13042c0.035988-0.071729 0.13228-0.25868 0.21399-0.41545zm2.663 0.44582c0.19193-0.11054 0.49855-0.41861 0.66598-0.66911 0.38327-0.57345 0.67475-1.3523 0.7895-2.1095 0.01935-0.1277 0.03012-0.31972 0.03084-0.55018 9.59e-4 -0.30071-5e-3 -0.38272-0.03956-0.54464-0.056184-0.2633-0.14034-0.43145-0.26292-0.52534-0.35105-0.26888-0.43035-0.31072-0.61364-0.32384-0.20896-0.01495-0.3331 0.054817-0.41153 0.23129-0.062377 0.14034-0.5884 1.4281-0.99027 2.4243-0.18529 0.45931-0.39055 0.96569-0.45614 1.1253-0.065584 0.15959-0.11925 0.29968-0.11925 0.31132 0 0.011639 0.11642 0.088508 0.2587 0.17082 0.25692 0.14863 0.47017 0.2912 0.55944 0.374 0.025614 0.02376 0.09914 0.071523 0.16339 0.10614 0.1671 0.090039 0.23954 0.086544 0.42545-0.020538zm7.2619 7.0192c-0.38784-0.06986-0.6411-0.32575-0.65948-0.66637-0.02594-0.48048 0.48158-1.0226 0.95641-1.0216 0.30451 6.12e-4 0.63914 0.21521 0.7713 0.49456 0.21106 0.44614-0.06041 0.97965-0.58922 1.158-0.12166 0.04103-0.35294 0.05814-0.479 0.03543zm0.93497-3.2761c0-0.01659 0.89435-3.579 1.2718-5.0657 0.12167-0.47928 0.23623-0.90103 0.25458-0.93722 0.04178-0.082391 0.10094-0.13229 0.31214-0.26331 0.36036-0.22355 0.49837-0.22411 0.69276-0.00286 0.13689 0.15582 0.18176 0.2659 0.18918 0.46413 0.01327 0.35427-0.05538 0.86227-0.15952 1.1804-0.23493 0.7177-0.90936 1.9951-1.8375 3.4803-0.1248 0.1997-0.33162 0.53466-0.45961 0.74434-0.23472 0.38456-0.26381 0.42867-0.26381 0.39999zm-13.434-8.5527c0-0.00581 0.062248-0.091768 0.13833-0.19102 0.99656-1.3001 2.2681-2.0184 3.8194-2.1576 0.65349-0.058649 1.726-0.065284 3.0863-0.019094 0.27459 0.009323 0.83012 0.025561 1.2345 0.036083s1.1805 0.035184 1.7247 0.054805c1.9997 0.0721 2.8471 0.067091 3.3586-0.019854 0.12481-0.021214 0.53329-0.11537 0.90774-0.20923 0.37444-0.093861 0.69585-0.17416 0.71424-0.17845 0.0325-0.0075683 0.0325-0.0067306 0 0.029298-0.01839 0.020398-0.1077 0.092946-0.19846 0.16122-0.79487 0.5979-1.9467 0.9811-3.2934 1.0957-0.91832 0.078162-1.5695 0.057191-4.1756-0.13448-1.9314-0.14205-2.1267-0.15274-2.8049-0.15364-0.53454-7.045e-4 -0.6982 0.0051716-0.89866 0.032258-0.65084 0.087954-1.1607 0.22386-1.6975 0.45245-0.45415 0.19341-0.78586 0.38816-1.289 0.75674-0.48998 0.35896-0.62634 0.45579-0.62634 0.4448z" fill="black" strokeWidth=".018155"/>
</svg>